<svg width="24" height="151" viewBox="0 0 24 151" fill="none" xmlns="http://www.w3.org/2000/svg">
<path d="M13.5 2C13.5 1.17157 12.8284 0.5 12 0.5C11.1716 0.5 10.5 1.17157 10.5 2L13.5 2ZM10.9393 150.061C11.5251 150.646 12.4749 150.646 13.0607 150.061L22.6066 140.515C23.1924 139.929 23.1924 138.979 22.6066 138.393C22.0208 137.808 21.0711 137.808 20.4853 138.393L12 146.879L3.51471 138.393C2.92893 137.808 1.97918 137.808 1.39339 138.393C0.807606 138.979 0.807606 139.929 1.39339 140.515L10.9393 150.061ZM10.5 2L10.5 149L13.5 149L13.5 2L10.5 2Z" fill="#FF6300"/>
</svg>
