<svg width="414" height="752" viewBox="0 0 414 752" fill="none" xmlns="http://www.w3.org/2000/svg">
<path d="M342.129 571.338L371.191 675.009C371.191 675.009 365.202 766.836 393.15 748.87C421.75 730.484 411.116 653.05 411.116 653.05L394.364 560.043L342.129 571.338Z" fill="#A0616A"/>
<path d="M357.658 280.515L381.658 304.515V418.867C381.658 418.867 395.776 440.044 392.952 445.691C390.129 451.338 387.305 451.338 390.129 455.573C392.952 459.808 395.776 462.632 392.952 465.456C390.129 468.279 390.129 475.338 392.952 478.161C395.776 480.985 401.423 485.22 397.187 489.455C392.952 493.691 387.305 490.867 392.952 506.397C398.599 521.926 408.482 526.161 405.658 531.808C402.835 537.455 402.835 551.573 402.835 551.573L342.129 560.043L329.423 400.514L357.658 280.515Z" fill="#D0CDE1"/>
<path d="M405.658 550.161L335.07 552.985L337.893 582.632L400.011 571.338L405.658 550.161Z" fill="#3F3D56"/>
<path d="M211.541 132.986L203.07 217.691L289.188 230.397L295.541 181.692L301.894 132.986H211.541Z" fill="#A0616A"/>
<path opacity="0.1" d="M211.541 132.527L203.07 217.233L289.188 229.939L295.541 181.233L301.894 132.527H211.541Z" fill="black"/>
<path d="M24.4826 536.044L72.4825 639.102C72.4825 639.102 80.953 687.102 93.6589 688.514C106.365 689.925 119.071 639.102 119.071 639.102L102.129 612.279L82.3648 536.044H24.4826Z" fill="#A0616A"/>
<path d="M353.056 746.314H81.6875C83.8378 712.303 85.1905 691.336 85.1905 691.336L88.7945 685.662L106.269 658.203L118.747 638.598L123.098 631.754L124.713 629.22L141.804 626.1L318.127 593.927C321.043 606.985 325.17 619.744 330.453 632.036C331.654 634.772 332.946 637.508 334.329 640.214C338.761 648.865 344.172 657.062 350.603 663.099C352.067 664.472 353.127 668.137 353.813 673.77C355.509 687.57 355.024 713.232 353.056 746.314Z" fill="#2F2E41"/>
<path d="M258.835 160.515C296.26 160.515 326.599 130.176 326.599 92.7506C326.599 55.3253 296.26 24.9861 258.835 24.9861C221.41 24.9861 191.07 55.3253 191.07 92.7506C191.07 130.176 221.41 160.515 258.835 160.515Z" fill="#A0616A"/>
<path d="M107.776 231.103L97.8942 225.456C97.8942 225.456 54.1296 255.103 40.012 321.456C25.8943 387.809 16.012 404.75 16.012 404.75C16.012 404.75 1.8944 407.573 11.7767 417.456C21.659 427.338 21.6591 425.926 13.1885 431.573C4.71796 437.22 -0.929104 425.926 4.71795 437.22C10.365 448.514 17.4238 445.691 11.7767 452.75C6.12967 459.808 -3.75265 459.808 1.8944 465.456C7.54145 471.103 -3.75256 483.808 3.3062 489.455C10.365 495.102 13.1885 496.514 13.1885 506.397C13.1454 512.164 14.1006 517.896 16.012 523.338H89.4236C89.4236 523.338 75.306 496.514 79.5413 490.867C83.7765 485.22 85.1883 479.573 82.3648 476.75C79.5413 473.926 71.0707 479.573 79.5413 472.514C88.0118 465.455 90.8354 469.691 88.0118 461.22C85.1883 452.75 79.5412 456.985 85.1883 452.75C90.8353 448.514 95.0706 449.926 92.2471 445.691C89.4236 441.456 83.7765 441.456 89.4236 438.632C95.0706 435.808 99.3059 438.632 97.8942 431.573C96.4824 424.514 95.0706 427.338 97.8942 424.514C100.718 421.691 130.365 325.691 130.365 322.868C130.365 320.044 107.776 231.103 107.776 231.103Z" fill="#D0CDE1"/>
<path d="M93.659 517.691L4.71802 523.338L27.306 544.514L89.424 545.926L93.659 517.691Z" fill="#3F3D56"/>
<path d="M119.071 623.573L100.718 657.455C100.718 657.455 155.776 664.514 175.541 671.573C195.306 678.631 246.129 688.514 246.129 688.514L258.835 639.102L119.071 623.573Z" fill="#3F3D56"/>
<path d="M280.011 639.102L295.541 685.69L357.658 672.984L350.599 629.22L280.011 639.102Z" fill="#3F3D56"/>
<path d="M305.423 183.103C305.423 183.103 301.188 180.28 291.305 185.927C281.423 191.574 248.953 194.397 233.423 177.456C217.894 160.515 206.6 146.398 202.365 149.221C198.129 152.045 195.306 184.515 195.306 184.515L181.188 195.809L97.8942 225.456L104.953 416.044L117.659 459.808C117.659 459.808 107.777 493.691 120.482 513.455C133.188 533.22 113.424 540.279 113.424 540.279C113.424 540.279 109.188 545.926 112.012 560.044C114.835 574.161 109.188 626.396 109.188 626.396C109.188 626.396 229.188 680.043 354.835 633.455L340.717 579.808L333.658 459.808C333.658 459.808 340.717 440.044 339.305 431.573C337.894 423.103 381.658 304.515 381.658 304.515C381.658 304.515 374.599 245.221 337.894 232.515C301.188 219.809 295.541 207.103 295.541 207.103C295.541 207.103 312.482 188.75 305.423 183.103Z" fill="#D0CDE1"/>
<path d="M190.6 101.431C190.6 101.431 183.563 90.8758 186.27 79.5084C187.887 73.0545 188.526 66.3943 188.165 59.7507C188.165 59.7507 193.848 41.3462 199.532 31.0614C205.216 20.7766 202.509 16.4461 220.372 13.1983C238.235 9.95043 230.928 -13.3257 278.022 11.845C279.61 14.0634 281.821 15.7615 284.374 16.7248C286.927 17.6882 289.708 17.8738 292.366 17.2581C302.11 15.3635 305.628 28.8962 305.628 28.8962C305.628 28.8962 312.124 25.107 314.56 30.5201C316.996 35.9332 334.364 27.2713 334.364 63.8095C334.364 100.348 314.599 132.986 314.599 132.986C314.599 132.986 316.048 71.5241 283.841 65.2991C251.633 59.074 216.989 40.9403 208.599 64.2165C200.209 87.4927 190.6 101.431 190.6 101.431Z" fill="#2F2E41"/>
<path d="M315.305 116.045C318.814 116.045 321.658 112.252 321.658 107.574C321.658 102.896 318.814 99.1035 315.305 99.1035C311.797 99.1035 308.952 102.896 308.952 107.574C308.952 112.252 311.797 116.045 315.305 116.045Z" fill="#A0616A"/>
</svg>
